<svg width="222" height="217" viewBox="0 0 222 217" fill="none" xmlns="http://www.w3.org/2000/svg">
<path fill-rule="evenodd" clip-rule="evenodd" d="M111 0C49.6725 0 0 49.6725 0 111C0 160.117 31.7737 201.604 75.8962 216.311C81.4462 217.283 83.5275 213.953 83.5275 211.039C83.5275 208.403 83.3888 199.661 83.3888 190.365C55.5 195.499 48.285 183.566 46.065 177.323C44.8163 174.131 39.405 164.28 34.6875 161.644C30.8025 159.563 25.2525 154.429 34.5487 154.29C43.29 154.151 49.5337 162.337 51.615 165.667C61.605 182.456 77.5612 177.739 83.9437 174.825C84.915 167.61 87.8288 162.754 91.02 159.979C66.3225 157.204 40.515 147.63 40.515 105.172C40.515 93.1012 44.8163 83.1113 51.8925 75.3413C50.7825 72.5663 46.8975 61.1888 53.0025 45.9263C53.0025 45.9263 62.2987 43.0125 83.5275 57.3038C92.4075 54.8063 101.842 53.5575 111.277 53.5575C120.712 53.5575 130.147 54.8063 139.027 57.3038C160.256 42.8738 169.552 45.9263 169.552 45.9263C175.657 61.1888 171.773 72.5663 170.663 75.3413C177.739 83.1113 182.04 92.9625 182.04 105.172C182.04 147.769 156.094 157.204 131.396 159.979C135.42 163.448 138.889 170.107 138.889 180.514C138.889 195.36 138.75 207.293 138.75 211.039C138.75 213.953 140.831 217.421 146.381 216.311C168.417 208.872 187.565 194.711 201.13 175.818C214.695 156.927 221.994 134.257 222 111C222 49.6725 172.328 0 111 0Z" fill="#cb309c"/>
</svg>
