<svg width="220" height="217" viewBox="0 0 220 217" fill="none" xmlns="http://www.w3.org/2000/svg">
<path fill-rule="evenodd" clip-rule="evenodd" d="M0 18.0884C0 13.2911 1.93186 8.69023 5.37057 5.29799C8.80927 1.90576 13.4732 0 18.3362 0H201.149C203.558 0 205.942 0.467901 208.166 1.37693C210.391 2.28596 212.412 3.61831 214.115 5.29799C215.817 6.97767 217.168 8.97172 218.09 11.1662C219.011 13.3609 219.486 15.713 219.486 18.0884V198.431C219.486 200.807 219.011 203.159 218.09 205.353C217.168 207.548 215.817 209.542 214.115 211.222C212.412 212.901 210.391 214.234 208.166 215.143C205.942 216.052 203.558 216.52 201.149 216.52H18.3362C13.4732 216.52 8.80927 214.614 5.37057 211.222C1.93186 207.829 0 203.229 0 198.431V18.0884ZM86.8797 82.5482H116.602V97.2809C120.886 88.8087 131.865 81.1948 148.358 81.1948C179.974 81.1948 187.478 98.0565 187.478 128.996V186.297H155.469V136.042C155.469 118.423 151.185 108.485 140.288 108.485C125.176 108.485 118.888 119.199 118.888 136.042V186.297H86.8797V82.5482ZM32.0083 184.944H64.0167V81.1948H32.0083V184.944ZM68.5893 47.3636C68.5893 50.0293 68.057 52.6689 67.023 55.1316C65.9889 57.5944 64.4732 59.8321 62.5625 61.717C60.6517 63.6019 58.3833 65.0971 55.8869 66.1173C53.3904 67.1373 50.7147 67.6624 48.0125 67.6624C45.3104 67.6624 42.6346 67.1373 40.1381 66.1173C37.6416 65.0971 35.3733 63.6019 33.4625 61.717C31.5518 59.8321 30.0361 57.5944 29.002 55.1316C27.968 52.6689 27.4357 50.0293 27.4357 47.3636C27.4357 41.9801 29.6036 36.8171 33.4625 33.0103C37.3214 29.2036 42.5552 27.065 48.0125 27.065C53.4698 27.065 58.7036 29.2036 62.5625 33.0103C66.4214 36.8171 68.5893 41.9801 68.5893 47.3636Z" fill="#8838D7"/>
</svg>
