<svg width="995" height="957" viewBox="0 0 995 957" fill="none" xmlns="http://www.w3.org/2000/svg">
<g filter="url(#filter0_f_101_34)">
<path d="M96.0345 1034.5C21.5068 926.566 82.8351 754.65 233.015 650.515C383.195 546.38 565.357 549.461 639.884 657.395C714.412 765.329 653.084 937.245 502.904 1041.38C352.724 1145.51 170.562 1142.43 96.0345 1034.5Z" fill="#9939F8" fill-opacity="0.5"/>
<path d="M-168.527 697.578C-243.054 589.644 -425.602 -38.9518 -275.422 -143.086C-125.242 -247.221 300.796 212.539 375.323 320.473C449.851 428.408 388.523 600.323 238.343 704.458C88.1627 808.593 -93.9989 805.512 -168.527 697.578Z" fill="#9939F8" fill-opacity="0.5"/>
<path d="M577.8 1310.5C451.467 1288.93 498.021 766.847 521.692 581.148C545.364 395.449 578.421 262.394 704.754 283.962C831.087 305.53 914.311 473.553 890.639 659.252C866.967 844.951 704.133 1332.07 577.8 1310.5Z" fill="#9939F8" fill-opacity="0.5"/>
<path d="M744.865 353.572C658.836 445.61 478.385 412.788 341.817 280.263C205.249 147.738 164.279 -34.3066 250.308 -126.344C336.337 -218.382 469.141 -150.025 605.709 -17.5C742.277 115.025 830.894 261.534 744.865 353.572Z" fill="#9939F8" fill-opacity="0.5"/>
<path d="M174.92 657.421C51.3099 615.057 -12.0636 456.641 33.3714 303.587C78.8064 150.534 215.845 60.8024 339.455 103.166C463.065 145.53 936.074 686.447 890.639 839.5C845.204 992.553 298.53 699.785 174.92 657.421Z" fill="#CB309C" fill-opacity="0.5"/>
<path d="M-250.746 353.572C-374.356 311.208 -106.47 9.96689 -61.0352 -143.086C-15.6002 -296.14 121.438 -385.871 245.048 -343.507C368.658 -301.143 432.032 -142.726 386.597 10.3271C341.162 163.38 -127.136 395.936 -250.746 353.572Z" fill="#CB309C" fill-opacity="0.5"/>
<path d="M-275.422 934.484C-315.923 814.577 -253.325 687.429 -135.605 650.489C-17.8849 613.549 110.379 680.807 150.88 800.714C191.381 920.62 268.6 1118.06 150.88 1155C33.1598 1191.94 -234.921 1054.39 -275.422 934.484Z" fill="#D343F0" fill-opacity="0.5"/>
</g>
<defs>
<filter id="filter0_f_101_34" x="-433" y="-454" width="1427.66" height="1865.19" filterUnits="userSpaceOnUse" color-interpolation-filters="sRGB">
<feFlood flood-opacity="0" result="BackgroundImageFix"/>
<feBlend mode="normal" in="SourceGraphic" in2="BackgroundImageFix" result="shape"/>
<feGaussianBlur stdDeviation="50" result="effect1_foregroundBlur_101_34"/>
</filter>
</defs>
</svg>
